<svg width="24px" height="24px" viewBox="0 0 24 24" xmlns="http://www.w3.org/2000/svg">
    <path fill="#fafafa"
          d="M7,2 C7.51283584,2 7.93550716,2.38604019 7.99327227,2.88337887 L8,3 L8,16 L21,16 C21.5128358,16 21.9355072,16.3860402 21.9932723,16.8833789 L22,17 C22,17.5128358 21.6139598,17.9355072 21.1166211,17.9932723 L21,18 L18,18 L18,21 C18,21.5522847 17.5522847,22 17,22 C16.4477153,22 16,21.5522847 16,21 L16,18 L7,18 C6.48716416,18 6.06449284,17.6139598 6.00672773,17.1166211 L6,17 L6,8 L3,8 C2.44771525,8 2,7.55228475 2,7 C2,6.44771525 2.44771525,6 3,6 L6,6 L6,3 C6,2.44771525 6.44771525,2 7,2 Z M17,6 C17.5522847,6 18,6.44771525 18,7 L18,13 C18,13.5522847 17.5522847,14 17,14 C16.4477153,14 16,13.5522847 16,13 L16,8 L11,8 C10.4477153,8 10,7.55228475 10,7 C10,6.44771525 10.4477153,6 11,6 L17,6 Z"/>
</svg>
